# xmcd CD database file
#
# Track frame offsets:
#	150
#	15025
#	27600
#	47420
#	65180
#	80182
#	101025
#	119965
#	139260
#	150800
#	166985
#	188865
#	206002
#	223487
#	241350
#	263875
#
# Disc length: 3818 seconds
#
# Revision: 3
# Processed by: cddbd v1.5.2PL0 Copyright (c) Steve Scherf et al.
# Submitted via: CDex 1.70beta2
#
DISCID=ee0ee810
DTITLE=Takuro Yoshida and LOVE LOVE ALL STARS - MINNA DAISUKI
DYEAR=1997
DGENRE=Folk
TTITLE0=伽草子
TTITLE1=結婚しようよ
TTITLE2=おきざりにした悲しみは
TTITLE3=こっちを向いてくれ
TTITLE4=旅の宿
TTITLE5=ひらひら
TTITLE6=春だったね
TTITLE7=我が良き友よ
TTITLE8=せんこう花火
TTITLE9=マークⅡ
TTITLE10=ともだち
TTITLE11=たどり着いたらいつも雨降り
TTITLE12=夏休み
TTITLE13=どうしてこんなに悲しいんだろう
TTITLE14=人生を語らず
TTITLE15=野の仏
EXTD=YEAR: 1997
EXTT0=
EXTT1=
EXTT2=
EXTT3=
EXTT4=
EXTT5=
EXTT6=
EXTT7=
EXTT8=
EXTT9=
EXTT10=
EXTT11=
EXTT12=
EXTT13=
EXTT14=
EXTT15=
PLAYORDER=
